<svg width="287" height="240" viewBox="0 0 287 240" fill="none" xmlns="http://www.w3.org/2000/svg">
<path d="M113.454 213.083L243.773 155.417L254.831 147.761L259.291 124.339L253.275 103.511L247.029 90.5536L116.668 149.038L113.454 213.083Z" fill="#D9D9D9"/>
<path d="M113.454 213.083L243.773 155.417L254.831 147.761L259.291 124.339L253.275 103.511L247.029 90.5536L116.668 149.038L113.454 213.083Z" fill="url(#paint0_linear_7_303)" fill-opacity="0.2"/>
<path d="M248.758 70.5113C214.239 47.4086 124.474 -6.94605e-06 124.474 -6.94605e-06L121.257 64.1129L245.541 134.624C257.979 144.54 252.68 148.551 243.3 155.652L243.011 155.871L257.877 149.228C295.725 128.823 283.278 93.614 248.758 70.5113Z" fill="black"/>
<path d="M171.57 26.3909L41.4727 84.5557L30.4443 92.2536L26.0746 115.693L32.1701 136.497L38.4663 149.431L168.602 90.447L171.57 26.3909Z" fill="#D9D9D9"/>
<path d="M171.57 26.3909L41.4727 84.5557L30.4443 92.2536L26.0746 115.693L32.1701 136.497L38.4663 149.431L168.602 90.447L171.57 26.3909Z" fill="url(#paint1_linear_7_303)" fill-opacity="0.2"/>
<path d="M37.3377 169.597C72.0243 192.448 162.131 239.202 162.131 239.202L164.882 175.067L40.0884 105.462C27.5779 95.6373 32.8478 91.5872 42.176 84.4185L42.4635 84.1975L27.6467 90.9489C-10.0525 111.628 2.65098 146.746 37.3377 169.597Z" fill="black"/>
<path d="M113.228 213.359L174.221 186.226L174.943 155.693L116.442 149.315L113.228 213.359Z" fill="#D9D9D9"/>
<path d="M113.228 213.359L174.221 186.226L174.943 155.693L116.442 149.315L113.228 213.359Z" fill="url(#paint2_linear_7_303)" fill-opacity="0.2"/>
<defs>
<linearGradient id="paint0_linear_7_303" x1="191.546" y1="152.301" x2="126.944" y2="178.647" gradientUnits="userSpaceOnUse">
<stop stop-color="#201B21"/>
<stop offset="1" stop-color="white"/>
</linearGradient>
<linearGradient id="paint1_linear_7_303" x1="93.712" y1="87.4709" x2="158.212" y2="60.8776" gradientUnits="userSpaceOnUse">
<stop stop-color="#201B21"/>
<stop offset="1" stop-color="white"/>
</linearGradient>
<linearGradient id="paint2_linear_7_303" x1="191.321" y1="152.578" x2="126.719" y2="178.924" gradientUnits="userSpaceOnUse">
<stop stop-color="#201B21"/>
<stop offset="1" stop-color="white"/>
</linearGradient>
</defs>
</svg>
